<?xml version="1.0" encoding="UTF-8"?>
<svg width="50.8mm" height="50.8mm" version="1.1" viewBox="0 0 50.8 50.8" xml:space="preserve" xmlns="http://www.w3.org/2000/svg"><g transform="translate(-9.8548 -5.1532)"><ellipse cx="35.255" cy="30.553" rx="11.515" ry="11.365" fill="none" stroke="#000" stroke-linecap="round" stroke-linejoin="round" stroke-width="3.175" style="paint-order:stroke fill markers"/><g><circle cx="35.251" cy="13.001" r="1.5875" style="paint-order:stroke fill markers"/><ellipse transform="rotate(30)" cx="45.803" cy="-8.7179" rx="1.5875" ry="1.5875" style="paint-order:stroke fill markers"/><ellipse transform="rotate(60)" cx="44.082" cy="-32.803" rx="1.5875" ry="1.5875" style="paint-order:stroke fill markers"/><circle transform="rotate(90)" cx="30.55" cy="-52.8" r="1.5875" style="paint-order:stroke fill markers"/><circle transform="rotate(-90)" cx="-30.55" cy="17.702" r="1.5875" style="paint-order:stroke fill markers"/><ellipse transform="rotate(-60)" cx="-8.8311" cy="28.254" rx="1.5875" ry="1.5875" style="paint-order:stroke fill markers"/><ellipse transform="rotate(-30)" cx="15.254" cy="26.533" rx="1.5875" ry="1.5875" style="paint-order:stroke fill markers"/><ellipse transform="scale(-1)" cx="-35.255" cy="-48.099" rx="1.5912" ry="1.5875" style="paint-order:stroke fill markers"/><ellipse transform="rotate(210)" cx="-45.803" cy="-26.38" rx="1.5875" ry="1.5875" style="paint-order:stroke fill markers"/><ellipse transform="rotate(240)" cx="-44.082" cy="-2.2954" rx="1.5875" ry="1.5875" style="paint-order:stroke fill markers"/><ellipse transform="rotate(120)" cx="8.8311" cy="-63.352" rx="1.5875" ry="1.5875" style="paint-order:stroke fill markers"/><ellipse transform="rotate(150)" cx="-15.254" cy="-61.631" rx="1.5875" ry="1.5875" style="paint-order:stroke fill markers"/></g></g></svg>
